<svg xmlns="http://www.w3.org/2000/svg" width="1024" height="1024" viewBox="0 0 1024 1024" role="img" aria-label="Roro pixel cat app icon">
  <rect width="1024" height="1024" rx="192" fill="#ead8c4"/>
  <rect x="82" y="832" width="860" height="62" rx="31" fill="#d5bea7" opacity="0.52"/>
  <g transform="translate(98 120) scale(46)" shape-rendering="crispEdges">
    <rect x="3" y="7" width="1" height="6" fill="#171821"/>
    <rect x="2" y="4" width="1" height="4" fill="#171821"/>
    <rect x="2" y="4" width="2" height="1" fill="#171821"/>
    <rect x="4" y="11" width="2" height="1" fill="#171821"/>
    <rect x="4" y="12" width="2" height="1" fill="#171821"/>
    <rect x="5" y="10" width="8" height="4" fill="#171821"/>
    <rect x="6" y="9" width="5" height="1" fill="#171821"/>
    <rect x="10" y="10" width="3" height="4" fill="#f4f0e8"/>
    <rect x="6" y="14" width="1" height="2" fill="#171821"/>
    <rect x="8" y="14" width="1" height="2" fill="#171821"/>
    <rect x="11" y="14" width="1" height="2" fill="#171821"/>
    <rect x="13" y="14" width="1" height="2" fill="#171821"/>
    <rect x="6" y="15" width="1" height="1" fill="#f4f0e8"/>
    <rect x="8" y="15" width="1" height="1" fill="#f4f0e8"/>
    <rect x="11" y="15" width="1" height="1" fill="#f4f0e8"/>
    <rect x="13" y="15" width="1" height="1" fill="#f4f0e8"/>
    <rect x="9" y="3" width="2" height="3" fill="#171821"/>
    <rect x="14" y="3" width="2" height="3" fill="#171821"/>
    <rect x="10" y="4" width="1" height="1" fill="#70736e"/>
    <rect x="14" y="4" width="1" height="1" fill="#70736e"/>
    <rect x="9" y="5" width="7" height="1" fill="#171821"/>
    <rect x="9" y="6" width="7" height="4" fill="#171821"/>
    <rect x="8" y="7" width="1" height="2" fill="#171821"/>
    <rect x="16" y="7" width="1" height="2" fill="#171821"/>
    <rect x="11" y="7" width="1" height="1" fill="#ffd61e"/>
    <rect x="14" y="7" width="1" height="1" fill="#ffd61e"/>
    <rect x="12" y="8" width="2" height="1" fill="#f4f0e8"/>
  </g>
</svg>
